<svg width="96" height="80" viewBox="0 0 96 80" fill="none" xmlns="http://www.w3.org/2000/svg">
<path fill-rule="evenodd" clip-rule="evenodd" d="M61.2367 26.5403C57.7875 29.3579 54.0285 31.6485 50.0411 33.3518C47.8949 29.356 45.1972 25.5829 42.0058 22.1026C43.9366 21.4518 45.9602 21.1186 47.9978 21.1159C52.953 21.1112 57.7093 23.0602 61.2367 26.5403ZM48.5275 37.2949C49.0404 38.3939 49.5154 39.5103 49.9514 40.6421C43.5883 42.7495 38.0259 47.1316 34.5558 53.2576C31.0865 49.7514 29.1328 45.0231 29.1152 40.0906C35.7081 40.4666 42.3094 39.5163 48.5284 37.2958L48.5275 37.2949ZM51.4546 36.1533C52.0076 37.3528 52.5178 38.5716 52.9842 39.8074C57.5908 38.8435 62.3674 39.0743 66.8596 40.4778C66.8624 40.4136 66.8662 40.3503 66.8709 40.288C66.8775 40.1926 66.8841 40.0973 66.8841 40C66.8841 35.8625 65.5377 32.047 63.28 28.9349C59.6944 31.8811 55.714 34.3108 51.4546 36.1533ZM56.543 56.8239C56.3003 52.0839 55.4789 47.3705 54.0314 42.8052C58.1992 42.0007 62.5049 42.2995 66.5215 43.672C65.3847 49.4317 61.6267 54.2367 56.543 56.8239ZM47.0838 34.4811C44.8979 30.4966 42.1616 26.7906 38.9446 23.4254C36.4261 24.805 34.2553 26.7409 32.5976 29.0857C30.9398 31.4305 29.8386 34.1224 29.3777 36.9568C35.4717 37.2845 41.4619 36.4347 47.0838 34.4811ZM49.2423 44.2395C49.8208 44.0071 50.4079 43.7967 51.0023 43.6088C52.4847 48.2391 53.292 53.1018 53.445 58.0787C51.6782 58.6125 49.8425 58.8838 47.9968 58.8841C44.0459 58.8855 40.1952 57.6405 36.9929 55.3263C39.6575 50.3258 43.9357 46.4367 49.2423 44.2395Z" fill="#002B31"/>
<path d="M15.7259 25.4375C16.2106 24.6699 16.5973 23.8445 16.8769 22.9807C16.8769 22.9807 15.8222 23.3357 14.5276 24.3678C13.3436 25.4404 11.9735 27.3099 12.0698 29.7573C13.8403 28.3353 15.0092 26.8114 15.7259 25.4375ZM8.96618 39.5704L8.89819 40.5694C8.88592 40.7818 9.03038 40.9707 9.24283 40.9763C9.44678 40.9933 9.62996 40.8205 9.64224 40.6147L9.71117 39.6186C11.1653 38.7405 12.1633 37.4856 12.7903 36.3686C13.1075 35.7483 13.3908 35.1902 13.5948 34.7899C13.76 34.365 13.8676 34.1072 13.8676 34.1072C13.8676 34.1072 12.9225 34.1988 11.7592 34.9589C10.9358 35.5868 9.83014 36.734 9.42035 38.5601C9.41751 38.5601 9.41563 38.5573 9.41185 38.5563C9.42601 36.6736 9.19845 35.1761 8.72823 33.9835C8.29955 32.5767 7.68014 31.708 7.68014 31.708L7.42143 32.6003C7.28452 33.1593 7.10606 33.9259 7.15893 34.822C7.17026 36.4441 7.57817 38.3477 8.96618 39.5704Z" fill="#002B31"/>
<path d="M9.87574 34.3971C9.85857 34.4452 9.85135 34.4963 9.85449 34.5473C9.85764 34.5983 9.87109 34.6481 9.89404 34.6937C9.91699 34.7393 9.94896 34.7798 9.98801 34.8128C10.0271 34.8457 10.0724 34.8703 10.1212 34.8853C10.3139 34.9476 10.514 34.8229 10.5877 34.6275L10.9012 33.7069C12.4856 33.231 13.5185 32.182 14.4156 31.3218C14.8005 30.911 15.1422 30.4617 15.4353 29.981C15.6789 29.6298 15.8385 29.424 15.8385 29.424C15.8385 29.424 14.8584 29.2474 13.7329 29.7856C12.7943 30.1954 11.6141 31.0272 10.8436 32.5871C10.836 32.5842 10.8294 32.5814 10.8218 32.5804C11.2109 30.8563 11.2231 29.4249 11.0655 28.2409C10.82 26.7792 10.4848 25.8775 10.4848 25.8775C10.3554 25.7501 7.98729 30.4739 10.1741 33.5067L9.87574 34.3971ZM12.055 51.9367C12.3298 52.337 12.8406 53.064 12.8803 53.0253C13.0351 53.1858 13.2806 53.2028 13.426 53.0574C13.4971 52.9865 13.5378 52.8907 13.5396 52.7902C13.5413 52.6898 13.504 52.5926 13.4355 52.5192C13.3958 52.5485 12.8831 51.8243 12.6244 51.4551C13.9604 47.2761 13.1342 43.9374 13.2797 43.7126C13.2797 43.7126 12.2174 44.2943 11.6367 45.6294C11.0173 46.7945 10.6802 48.9577 11.9804 51.1275C11.971 51.1341 11.9625 51.1369 11.9549 51.1435C11.9408 51.153 11.9332 51.169 11.9228 51.1804C10.4073 49.1635 9.11564 47.7047 7.90987 46.5632C6.48409 45.3112 5.52098 44.6719 5.52193 44.6663C5.44356 44.6351 5.72683 46.5452 6.87217 48.5743C7.92686 50.4288 9.90784 52.0207 12.055 51.9367Z" fill="#002B31"/>
<path d="M16.7192 56.348L19.1335 57.8616C19.3167 57.9843 19.5537 57.8899 19.6377 57.7067C19.7265 57.5018 19.6377 57.2913 19.465 57.1761L17.0836 55.6767C16.9798 53.3671 16.3575 51.4891 15.8278 50.1672C15.3368 48.6999 14.7486 47.7567 14.7892 47.7142C14.7892 47.7142 13.9734 48.6546 13.8657 50.2711C13.6325 51.7932 14.2916 54.0045 16.4803 55.6682C16.4652 55.6852 16.4482 55.6984 16.4349 55.7182C14.1556 54.2613 12.1312 53.4446 10.5524 52.7326C8.7282 52.0575 7.47805 51.7799 7.47805 51.7799C7.47805 51.7799 7.64801 52.2558 8.14845 52.9035C8.65833 53.5267 9.34289 54.4143 10.2871 55.1489C12.1047 56.5416 14.6362 57.3715 16.7192 56.348ZM9.39104 46.109L9.7574 47.4545C9.81689 47.667 10.018 47.7935 10.2106 47.7151C10.3059 47.6741 10.3835 47.6004 10.4294 47.5073C10.4752 47.4141 10.4864 47.3077 10.4608 47.2071L10.1096 45.9136C11.4494 44.3651 12.303 42.691 12.6968 41.3247C13.2945 39.8329 13.303 38.6281 13.3709 38.6102C13.3709 38.6102 12.2917 38.8934 11.2417 40.0265C10.2673 41.0056 9.26641 42.8534 9.65165 45.3574C9.62521 45.3556 9.59877 45.3499 9.57233 45.3546C8.93404 42.9138 8.17394 41.0528 7.40062 39.6563C6.49606 38.1022 5.6321 37.2146 5.6321 37.2146C5.6321 37.2146 5.52634 37.6386 5.54523 38.3458C5.54145 39.0483 5.58866 40.0302 5.75673 41.0689C6.2364 43.0649 7.28448 45.3338 9.39199 46.11L9.39104 46.109ZM80.2729 25.4375C79.7881 24.6699 79.4014 23.8445 79.1219 22.9807C79.1219 22.9807 80.1766 23.3357 81.4711 24.3678C82.6551 25.4413 84.0252 27.3108 83.9289 29.7573C82.1585 28.3353 80.9895 26.8114 80.2729 25.4375ZM87.0316 39.5704L87.1005 40.5694C87.1128 40.7818 86.9683 40.9707 86.7559 40.9763C86.5519 40.9933 86.3688 40.8205 86.3565 40.6147L86.2876 39.6186C84.8335 38.7405 83.8354 37.4856 83.2085 36.3686C82.8912 35.7483 82.6079 35.1902 82.404 34.7899C82.2387 34.365 82.1311 34.1072 82.1311 34.1072C82.1311 34.1072 83.0772 34.1988 84.2395 34.9589C85.062 35.5868 86.1686 36.734 86.5784 38.5601C86.5812 38.5601 86.5831 38.5573 86.5869 38.5563C86.5737 36.6736 86.8003 35.1761 87.2705 33.9835C87.6992 32.5767 88.3186 31.708 88.3186 31.708L88.5773 32.6003C88.7142 33.1593 88.8927 33.9259 88.8398 34.822C88.8285 36.4441 88.4206 38.3477 87.0316 39.5704Z" fill="#002B31"/>
<path d="M86.1239 34.3971C86.1411 34.4452 86.1483 34.4963 86.1451 34.5473C86.142 34.5983 86.1285 34.6481 86.1056 34.6937C86.0826 34.7393 86.0507 34.7798 86.0116 34.8128C85.9726 34.8457 85.9273 34.8703 85.8784 34.8853C85.6858 34.9476 85.4856 34.8229 85.412 34.6275L85.0985 33.7069C83.5141 33.231 82.4811 32.182 81.5841 31.3218C81.1992 30.911 80.8575 30.4617 80.5643 29.981C80.3207 29.6298 80.1611 29.424 80.1611 29.424C80.1611 29.424 81.1412 29.2474 82.2668 29.7856C83.2053 30.1954 84.3856 31.0272 85.1561 32.5871C85.1636 32.5842 85.1702 32.5814 85.1778 32.5804C84.7888 30.8563 84.7765 29.4249 84.9342 28.2409C85.1797 26.7792 85.5149 25.8775 85.5149 25.8775C85.6442 25.7501 88.0123 30.4739 85.8255 33.5067L86.1239 34.3971ZM83.9446 51.9367C83.6699 52.337 83.159 53.064 83.1194 53.0253C82.9645 53.1858 82.719 53.2028 82.5736 53.0574C82.5025 52.9865 82.4618 52.8907 82.4601 52.7902C82.4583 52.6898 82.4956 52.5926 82.5642 52.5192C82.6038 52.5485 83.1165 51.8243 83.3753 51.4551C82.0392 47.2761 82.8654 43.9374 82.719 43.7126C82.719 43.7126 83.7822 44.2943 84.362 45.6294C84.9814 46.7945 85.3194 48.9577 84.0192 51.1275C84.0287 51.1341 84.0372 51.1369 84.0447 51.1435C84.0589 51.153 84.0655 51.169 84.0768 51.1804C85.5923 49.1635 86.884 47.7047 88.0898 46.5632C89.5155 45.3112 90.4787 44.6719 90.4777 44.6663C90.5561 44.6351 90.2728 46.5452 89.1275 48.5743C88.0728 50.4288 86.0918 52.0207 83.9446 51.9367Z" fill="#002B31"/>
<path d="M79.2797 56.348L76.8653 57.8616C76.6821 57.9843 76.4451 57.8899 76.3611 57.7067C76.2723 57.5018 76.3611 57.2913 76.5339 57.1761L78.9152 55.6767C79.0191 53.3671 79.6413 51.4891 80.171 50.1672C80.662 48.6999 81.2503 47.7567 81.2097 47.7142C81.2097 47.7142 82.0255 48.6546 82.1331 50.2711C82.3663 51.7931 81.7073 54.0045 79.5186 55.6682C79.5337 55.6852 79.5507 55.6984 79.5639 55.7182C81.8432 54.2613 83.8676 53.4446 85.4464 52.7326C87.2706 52.0575 88.5208 51.7799 88.5208 51.7799C88.5208 51.7799 88.3508 52.2558 87.8504 52.9035C87.3405 53.5267 86.6559 54.4143 85.7117 55.1488C83.8941 56.5415 81.3626 57.3715 79.2797 56.348ZM86.6068 46.109L86.2414 47.4545C86.1819 47.667 85.9808 47.7935 85.7882 47.7151C85.6929 47.674 85.6153 47.6003 85.5695 47.5072C85.5236 47.4141 85.5124 47.3077 85.538 47.2071L85.8892 45.9136C84.5494 44.3651 83.6958 42.691 83.3021 41.3247C82.7044 39.8329 82.6959 38.6281 82.6279 38.6101C82.6279 38.6101 83.7071 38.8934 84.7571 40.0264C85.7315 41.0056 86.7324 42.8534 86.3462 45.3574C86.3736 45.3555 86.4001 45.3499 86.4265 45.3546C87.0648 42.9138 87.8249 41.0528 88.5982 39.6563C89.5037 38.1022 90.3667 37.2146 90.3667 37.2146C90.3667 37.2146 90.4725 37.6385 90.4536 38.3458C90.4574 39.0482 90.4102 40.0302 90.2421 41.0688C89.7624 43.0649 88.7143 45.3338 86.6068 46.11V46.109Z" fill="#002B31"/>
</svg>
