<?xml version="1.0" encoding="UTF-8"?><svg id="Layer_1" xmlns="http://www.w3.org/2000/svg" xmlns:xlink="http://www.w3.org/1999/xlink" viewBox="0 0 119.13 32"><defs><style>.cls-1{fill:url(#linear-gradient);}.cls-1,.cls-2,.cls-3,.cls-4{stroke-width:0px;}.cls-2{fill:#fff;fill-rule:evenodd;}.cls-3{fill:url(#linear-gradient-2);}.cls-4{fill:#646464;}</style><linearGradient id="linear-gradient" x1="391.72" y1="-212.62" x2="417.2" y2="-234.54" gradientTransform="translate(-217.98 -116.83) scale(.56 -.57)" gradientUnits="userSpaceOnUse"><stop offset="0" stop-color="#5a9fd4"/><stop offset="1" stop-color="#306998"/></linearGradient><linearGradient id="linear-gradient-2" x1="427.05" y1="-247.81" x2="417.95" y2="-234.94" gradientTransform="translate(-217.98 -116.83) scale(.56 -.57)" gradientUnits="userSpaceOnUse"><stop offset="0" stop-color="#ffd43b"/><stop offset="1" stop-color="#ffe873"/></linearGradient></defs><polygon class="cls-2" points="8.85 10.87 10.91 10.76 12.21 14.32 13.75 10.61 15.81 10.49 13.3 15.56 15.81 20.64 13.63 20.49 12.15 16.62 10.68 20.34 8.67 20.17 11 15.68 8.85 10.87"/><path id="path46" class="cls-4" d="m44.83,16.17c0-3.4-.97-5.15-2.91-5.25-.77-.04-1.53.09-2.26.37-.59.21-.98.42-1.19.63v8.12c1.24.78,2.34,1.14,3.3,1.08,2.03-.13,3.05-1.79,3.05-4.96Zm2.39.14c0,1.73-.41,3.16-1.22,4.3-.91,1.29-2.17,1.96-3.78,1.99-1.21.04-2.46-.34-3.75-1.14v7.38l-2.08-.74V11.72c.34-.42.78-.78,1.31-1.08,1.24-.72,2.74-1.09,4.52-1.11l.03.03c1.62-.02,2.87.64,3.74,1.99.82,1.24,1.23,2.82,1.23,4.76Z"/><path id="path48" class="cls-4" d="m59.95,21.16c0,2.32-.23,3.92-.7,4.82-.47.89-1.36,1.61-2.67,2.14-1.06.42-2.21.65-3.45.69l-.34-1.31c1.26-.17,2.14-.34,2.65-.51,1.01-.34,1.7-.87,2.08-1.57.31-.57.46-1.66.46-3.28v-.54c-1.42.65-2.92.97-4.48.97-1.03,0-1.93-.32-2.71-.97-.87-.7-1.31-1.6-1.31-2.68v-8.66l2.08-.71v8.72c0,.93.3,1.65.9,2.15.6.5,1.38.74,2.33.73.95-.02,1.98-.39,3.06-1.11v-10.17h2.08v11.31Z"/><path id="path50" class="cls-4" d="m68.08,22.5c-.25.02-.48.03-.69.03-1.18,0-2.1-.28-2.75-.84-.65-.56-.98-1.34-.98-2.33v-8.2h-1.43v-1.31h1.43v-3.48l2.08-.74v4.22h2.34v1.31h-2.34v8.14c0,.78.21,1.33.63,1.66.36.27.93.42,1.71.46v1.08Z"/><path id="path52" class="cls-4" d="m80.68,22.32h-2.08v-8.04c0-.82-.19-1.52-.57-2.11-.44-.67-1.05-1-1.83-1-.95,0-2.15.5-3.58,1.51v9.63h-2.08V3.12l2.08-.66v8.75c1.33-.97,2.78-1.45,4.36-1.45,1.1,0,2,.37,2.68,1.11.69.74,1.03,1.66,1.03,2.77v8.69h0Z"/><path id="path54" class="cls-4" d="m91.75,15.84c0-1.31-.25-2.39-.74-3.24-.59-1.04-1.5-1.59-2.74-1.65-2.28.13-3.42,1.77-3.42,4.9,0,1.44.24,2.64.72,3.6.61,1.23,1.53,1.83,2.75,1.81,2.29-.02,3.44-1.83,3.44-5.43Zm2.28.01c0,1.86-.48,3.41-1.43,4.65-1.05,1.38-2.49,2.08-4.33,2.08s-3.25-.69-4.28-2.08c-.93-1.24-1.4-2.79-1.4-4.65,0-1.75.5-3.22,1.51-4.42,1.06-1.27,2.46-1.91,4.19-1.91s3.14.64,4.22,1.91c1.01,1.2,1.51,2.67,1.51,4.42Z"/><path id="path56" class="cls-4" d="m105.96,22.32h-2.08v-8.49c0-.93-.28-1.66-.84-2.18-.56-.52-1.31-.77-2.24-.75-.99.02-1.93.34-2.82.97v10.46h-2.08v-10.72c1.2-.87,2.3-1.44,3.31-1.71.95-.25,1.79-.37,2.51-.37.49,0,.96.05,1.4.14.82.19,1.48.54,2,1.05.57.57.86,1.25.86,2.05v9.55Z"/><path id="path1948" class="cls-1" d="m15.83,3.19c-1.07,0-2.09.1-2.99.26-2.65.47-3.13,1.45-3.13,3.26v2.39h6.27v.8H7.36c-1.82,0-3.42,1.09-3.91,3.18-.58,2.39-.6,3.88,0,6.37.45,1.85,1.51,3.18,3.33,3.18h2.15v-2.86c0-2.07,1.79-3.89,3.91-3.89h6.26c1.74,0,3.13-1.43,3.13-3.18v-5.97c0-1.7-1.43-2.97-3.13-3.26-1.08-.18-2.19-.26-3.26-.26Zm-3.39,1.92c.65,0,1.18.54,1.18,1.2s-.53,1.19-1.18,1.19-1.18-.53-1.18-1.19.53-1.2,1.18-1.2Z"/><path id="path1950" class="cls-3" d="m23.01,9.89v2.78c0,2.16-1.83,3.97-3.91,3.97h-6.26c-1.71,0-3.13,1.47-3.13,3.18v5.97c0,1.7,1.48,2.7,3.13,3.18,1.98.58,3.89.69,6.26,0,1.58-.46,3.13-1.38,3.13-3.18v-2.39h-6.26v-.8h9.39c1.82,0,2.5-1.27,3.13-3.18.65-1.96.63-3.85,0-6.37-.45-1.81-1.31-3.18-3.13-3.18h-2.35Zm-3.52,15.11c.65,0,1.18.53,1.18,1.19s-.53,1.2-1.18,1.2-1.18-.54-1.18-1.2.53-1.19,1.18-1.19Z"/><path id="text3004" class="cls-4" d="m110.02,7.99h.37v-2.29h.86v-.27h-2.09v.27h.86v2.29m1.55,0h.31v-2.09l.68,2.09h.35l.71-2.08v2.08h.34v-2.56h-.45l-.77,2.19-.66-2.19h-.5v2.56"/></svg>